Coordinates
version=1
nRows=54
nColumns=12
inDegrees=yes

Units are S.I. units (second, meters, Newtons, ...)
Angles are in degrees

endheader
time	SC_y	SC_z	SC_x	AC_y	AC_z	AC_x	GH_y	GH_z	GH_yy	EL_x	PS_y
       0.0              -26.07         -2.414         0.1874          38.17          7.315        -0.5673          152.6          22.38          118.4          5.717          108.8
    0.0292              -26.07         -2.409         0.1889          38.17          7.312        -0.5644          152.6          22.38          118.4          5.726          108.8
   0.05839              -26.07         -2.402         0.1904          38.17           7.31        -0.5614          152.5          22.39          118.4          5.735          108.8
   0.08759              -26.07         -2.396          0.192          38.17          7.307        -0.5581          152.5          22.41          118.4          5.745          108.8
    0.1168              -26.07         -2.389         0.1937          38.18          7.303        -0.5546          152.4          22.42          118.3          5.755          108.8
     0.146              -26.08         -2.381         0.1955          38.18            7.3        -0.5509          152.4          22.43          118.3          5.766          108.8
    0.1752              -26.08         -2.373         0.1974          38.18          7.297         -0.547          152.3          22.44          118.2          5.778          108.8
    0.2044              -26.08         -2.365         0.1995          38.18          7.293        -0.5427          152.2          22.46          118.2          5.791          108.8
    0.2336              -26.08         -2.355         0.2017          38.18          7.289        -0.5382          152.2          22.47          118.2          5.804          108.8
    0.2628              -26.09         -2.346         0.2041          38.18          7.284        -0.5333          152.1          22.49          118.1          5.819          108.8
     0.292              -26.09         -2.335         0.2067          38.18           7.28        -0.5281          152.0           22.5          118.1          5.835          108.8
    0.3212              -26.09         -2.324         0.2094          38.19          7.274        -0.5225          151.9          22.52          118.0          5.851          108.8
    0.3504               -26.1         -2.311         0.2124          38.19          7.269        -0.5164          151.8          22.54          117.9          5.869          108.9
    0.3796               -26.1         -2.298         0.2156          38.19          7.263        -0.5099          151.7          22.56          117.9          5.889          108.9
    0.4088              -26.11         -2.284         0.2191          38.19          7.257        -0.5028          151.6          22.59          117.8           5.91          108.9
    0.4379              -26.11         -2.268         0.2228           38.2           7.25        -0.4951          151.5          22.61          117.7          5.933          108.9
    0.4671              -26.12         -2.251         0.2269           38.2          7.242        -0.4867          151.3          22.64          117.7          5.958          108.9
    0.4963              -26.12         -2.233         0.2314           38.2          7.234        -0.4776          151.2          22.67          117.6          5.985          108.9
    0.5255              -26.13         -2.213         0.2363          38.21          7.225        -0.4677          151.0           22.7          117.5          6.015          108.9
    0.5547              -26.14         -2.191         0.2416          38.21          7.215        -0.4568          150.8          22.74          117.4          6.047          108.9
    0.5839              -26.14         -2.166         0.2474          38.21          7.205        -0.4449          150.6          22.77          117.3          6.083          108.9
    0.6131              -26.15          -2.14         0.2539          38.22          7.193        -0.4317          150.4          22.82          117.1          6.122          108.9
    0.6423              -26.16          -2.11          0.261          38.22           7.18        -0.4172          150.2          22.86          117.0          6.166          108.9
    0.6715              -26.17         -2.078         0.2689          38.23          7.165        -0.4011          149.9          22.92          116.8          6.214          108.9
    0.7007              -26.18         -2.042         0.2777          38.23          7.149        -0.3832          149.6          22.98          116.7          6.267          108.9
    0.7299               -26.2         -2.001         0.2874          38.24          7.131        -0.3633          149.3          23.04          116.5          6.327          108.9
    0.7591              -26.21         -1.956         0.2984          38.25          7.111        -0.3409          148.9          23.11          116.2          6.394          108.9
    0.7883              -26.23         -1.905         0.3107          38.26          7.088        -0.3158          148.5           23.2          116.0          6.469          108.9
    0.8175              -26.24         -1.847         0.3246          38.27          7.063        -0.2873          148.1          23.29          115.7          6.554          108.9
    0.8467              -26.27         -1.782         0.3405          38.28          7.033        -0.2551          147.5          23.39          115.4           6.65          108.9
    0.8759              -26.29         -1.708         0.3585          38.29            7.0        -0.2182          146.9          23.51          115.1           6.76          109.0
    0.9051              -26.32         -1.622         0.3792          38.31          6.962         -0.176          146.3          23.65          114.6          6.886          109.0
    0.9343              -26.35         -1.523         0.4031          38.32          6.918        -0.1272          145.5          23.81          114.2          7.032          109.0
    0.9635              -26.38         -1.408         0.4309          38.34          6.867       -0.07047          144.5           24.0          113.6          7.202          109.0
    0.9927              -26.43         -1.274         0.4634          38.36          6.807       -0.00413          143.4          24.21          113.0            7.4          109.0
     1.022              -26.48         -1.116         0.5017          38.39          6.737        0.07408          142.2          24.47          112.2          7.633          109.1
     1.051              -26.53        -0.9274         0.5473          38.42          6.653          0.167          140.7          24.77          111.3          7.911          109.1
      1.08              -26.61        -0.7018         0.6019          38.46          6.553         0.2784          138.8          25.13          110.2          8.244          109.1
     1.109              -26.69        -0.4289         0.6679          38.51          6.431         0.4132          136.6          25.57          108.9          8.646          109.2
     1.139               -26.8       -0.09549         0.7486          38.57          6.283         0.5779          133.9          26.11          107.3          9.138          109.2
     1.168              -26.93          0.316         0.8482          38.64            6.1         0.7811          130.6          26.77          105.4          9.745          109.3
     1.197              -27.09         0.8291         0.9724          38.72          5.871          1.034          126.5           27.6          102.9           10.5          109.4
     1.226              -27.29          1.476          1.129          38.83          5.584          1.354          121.3          28.64          99.83          11.46          109.5
     1.255              -27.55          2.297          1.328          38.97          5.218          1.759          114.6          29.97           95.9          12.67          109.7
     1.285              -27.88          3.349          1.582          39.15           4.75          2.279          106.2          31.66          90.86          14.22          109.9
     1.314              -28.31          4.699          1.909          39.38          4.149          2.945          95.28          33.83          84.41          16.21          110.1
     1.343              -28.85          6.423          2.326          39.68          3.382          3.797          81.37          36.61          76.16          18.75          110.4
     1.372              -29.53           8.59          2.851          40.04          2.417          4.867          63.89           40.1          65.78          21.95          110.8
     1.401              -30.36          11.23           3.49          40.49          1.241          6.172          42.58          44.36          53.14          25.85          111.3
     1.431              -31.33          14.29          4.231          41.02        -0.1216          7.684          17.89          49.29          38.49          30.37          111.8
      1.46              -32.37          17.61          5.033          41.58         -1.597          9.322         -8.852          54.63          22.63          35.26          112.4
     1.489              -33.41          20.93          5.836          42.14         -3.073          10.96         -35.59          59.98          6.761          40.15          113.0
     1.518              -34.38          23.99          6.577          42.67         -4.436          12.47         -60.29          64.91         -7.891          44.67          113.6
     1.547              -35.21          26.63          7.216          43.12         -5.611          13.78         -81.59          69.16         -20.53          48.56          114.0
